<?xml version="1.0" encoding="UTF-8" standalone="no"?>
<svg
   xmlns:dc="http://purl.org/dc/elements/1.1/"
   xmlns:cc="http://creativecommons.org/ns#"
   xmlns:rdf="http://www.w3.org/1999/02/22-rdf-syntax-ns#"
   xmlns:svg="http://www.w3.org/2000/svg"
   xmlns="http://www.w3.org/2000/svg"
   id="svg8"
   version="1.1"
   viewBox="0 0 16.933333 16.933334"
   height="64"
   width="64">
  <defs
     id="defs2" />
  <metadata
     id="metadata5">
    <rdf:RDF>
      <cc:Work
         rdf:about="">
        <dc:format>image/svg+xml</dc:format>
        <dc:type
           rdf:resource="http://purl.org/dc/dcmitype/StillImage" />
        <dc:title></dc:title>
      </cc:Work>
    </rdf:RDF>
  </metadata>
  <g
     transform="translate(0,-280.06665)"
     id="layer1">
    <path
       id="path21"
       d="M 0.60098255,296.34253 C 0.09848919,295.78728 0.0181173,294.70214 0.0181173,288.4729 c 0,-6.55274 0.05997942,-7.27984 0.64405864,-7.80844 0.55525026,-0.50249 1.64039316,-0.58286 7.86962726,-0.58286 6.5527378,0 7.2798428,0.06 7.8084338,0.64405 0.502493,0.55526 0.582865,1.6404 0.582865,7.86963 0,6.55275 -0.05998,7.27985 -0.644059,7.80844 -0.55525,0.50249 -1.640393,0.58287 -7.8696265,0.58287 -6.5527383,0 -7.279843,-0.06 -7.80843395,-0.64406 z M 10.687769,293.72885 c 0.324967,-0.24213 0.684841,-0.91933 0.79972,-1.50488 0.259927,-1.32491 -0.513564,-2.11091 -2.7003779,-2.74405 -0.8520365,-0.24669 -1.514463,-0.60003 -1.4720581,-0.78522 0.1077792,-0.47069 1.8599317,-0.64402 1.8599317,-0.18399 0,0.61363 1.7616013,0.43144 2.0068113,-0.20756 0.365924,-0.95359 -1.131912,-1.88218 -3.0359815,-1.88218 -4.0428724,0 -4.3841069,4.07796 -0.3975933,4.75148 1.096303,0.18523 1.4372046,0.39311 1.3539083,0.82563 -0.1538047,0.79864 -1.3739972,0.96389 -1.8915001,0.25617 -0.3000222,-0.41031 -0.6976235,-0.51453 -1.3439809,-0.35231 -1.0619738,0.26654 -1.1549752,0.71708 -0.3350448,1.62309 0.6967529,0.7699 4.2100214,0.90878 5.1561653,0.20382 z m 2.889554,-10.47757 1.012251,-1.05656 H 9.4828604 4.3761453 l -1.0122492,1.05656 -1.0122506,1.05657 h 5.1067138 5.1067147 z"
       style="fill:#000000;stroke-width:0.35218719" />
  </g>
</svg>
